<?xml version="1.0" standalone="no"?>
<!DOCTYPE svg PUBLIC "-//W3C//DTD SVG 20010904//EN"
 "http://www.w3.org/TR/2001/REC-SVG-20010904/DTD/svg10.dtd">
<svg version="1.0" xmlns="http://www.w3.org/2000/svg"
 width="700.000000pt" height="700.000000pt" viewBox="0 0 700.000000 700.000000"
 preserveAspectRatio="xMidYMid meet">
<metadata>
Created by potrace 1.14, written by Peter Selinger 2001-2017
</metadata>
<g transform="translate(0.000000,700.000000) scale(0.100000,-0.100000)"
fill="#000000" stroke="none">
<path d="M2455 6699 c-472 -68 -865 -437 -969 -910 -16 -71 -19 -76 -51 -88
-57 -20 -237 -133 -317 -199 -251 -205 -439 -513 -503 -826 -48 -235 -41 -448
22 -687 l25 -96 -65 -85 c-259 -340 -358 -763 -276 -1173 66 -328 248 -637
494 -836 l65 -52 0 -72 c0 -159 64 -404 150 -576 193 -383 558 -671 975 -767
404 -94 836 -8 1179 235 111 79 269 240 343 349 102 150 185 334 223 492 l12
53 782 -3 781 -3 48 -24 c65 -32 132 -110 154 -177 l17 -54 -37 -38 c-20 -20
-51 -68 -69 -107 -31 -66 -33 -76 -33 -180 0 -104 2 -114 34 -182 93 -198 316
-297 522 -233 181 56 309 229 309 417 0 102 -56 238 -124 302 -18 17 -26 35
-26 60 0 49 -25 161 -50 230 -109 293 -373 511 -681 560 -40 7 -345 11 -831
11 l-768 0 0 440 0 440 271 0 271 0 47 -39 c80 -67 194 -111 286 -111 168 0
345 121 406 277 31 79 37 212 14 285 -62 191 -222 309 -420 309 -110 0 -227
-45 -289 -110 l-30 -31 -278 0 -278 0 0 435 0 435 861 0 861 0 34 -29 c244
-215 627 -97 709 218 60 232 -81 468 -317 531 -29 7 -81 11 -130 8 -97 -5
-182 -38 -257 -100 l-46 -38 -273 0 -273 0 3 333 3 332 30 54 c31 57 48 69 68
53 24 -19 126 -42 189 -42 263 0 476 250 428 503 -57 303 -380 459 -644 311
-55 -31 -139 -111 -161 -154 -9 -17 -19 -30 -23 -30 -20 0 -154 -99 -215 -158
-109 -107 -169 -206 -225 -372 -26 -74 -26 -79 -30 -452 l-3 -378 -295 0 -294
0 0 344 c0 379 -7 450 -61 610 -178 532 -718 865 -1274 785z m348 -600 c199
-67 349 -233 392 -435 12 -56 15 -183 15 -676 0 -642 -3 -704 -47 -843 -92
-294 -302 -522 -594 -646 -117 -49 -169 -91 -205 -166 -68 -138 -8 -313 131
-385 58 -30 158 -35 231 -12 90 28 299 137 392 204 46 33 85 60 88 60 3 0 3
-357 2 -792 -4 -778 -4 -794 -25 -870 -48 -170 -128 -304 -256 -424 -120 -114
-248 -181 -421 -219 -117 -26 -311 -17 -426 20 -259 83 -466 272 -559 512
l-21 53 48 -8 c26 -4 101 -7 167 -7 114 0 123 1 173 30 90 49 141 129 149 230
6 75 -8 129 -50 192 -38 56 -120 110 -181 117 -22 2 -87 9 -142 15 -239 25
-451 140 -598 325 -127 160 -187 334 -187 543 0 147 26 256 90 388 75 153 198
286 341 368 106 61 164 156 163 267 -1 141 -91 251 -232 281 -31 7 -59 18 -63
23 -13 19 -8 233 7 305 41 194 147 373 292 494 32 26 61 47 64 47 4 0 24 -34
44 -75 68 -138 154 -198 280 -199 166 -1 289 122 290 289 0 61 -5 81 -42 160
-49 107 -60 145 -68 245 -17 193 84 401 247 512 71 48 158 85 231 98 75 13
208 3 280 -21z"/>
</g>
</svg>
